<?xml version="1.0" encoding="UTF-8"?>
<svg xmlns="http://www.w3.org/2000/svg"
     viewBox="-2 -2 94 116"
     width="94"
     height="116">
  <g transform="translate(-71.038646,-180.47736)">
    <path
       fill="#c84529"
       d="m 109.83141,289.88454 c -1.9596,-0.61964 -3.27452,-2.1452 -4.06835,-4.72006 -1.34543,-4.36399 -2.71781,-12.38781 -3.19817,-18.69859 l -0.17193,-2.25875 -2.515313,-0.86054 c -18.317571,-6.26681 -30.354986,-24.5898 -28.684621,-43.66286 0.173941,-1.98615 0.545121,-4.64355 0.824845,-5.90534 3.650944,-16.46878 16.412937,-29.16634 32.905789,-32.73965 5.23808,-1.13488 8.72784,-0.55966 11.05388,1.82202 3.7054,3.794 2.57416,9.34081 -3.34685,16.41075 -3.40281,4.06309 -4.79042,5.03229 -7.18905,5.02127 -4.49065,-0.0206 -7.339585,-5.16658 -4.94048,-8.92388 0.20907,-0.32742 0.28808,-0.59522 0.17558,-0.59512 -0.11249,1.1e-4 -1.183694,0.5827 -2.380452,1.29465 -8.389762,4.99108 -13.776432,12.98528 -15.169515,22.51263 -0.481945,3.29605 -0.191725,8.78417 0.632262,11.95614 1.971224,7.58829 6.709194,14.19246 13.198338,18.39692 1.606425,1.04083 4.999467,2.79693 5.122797,2.65135 0.0274,-0.0323 0.18976,-2.26141 0.36086,-4.95354 1.16628,-18.35132 5.5977,-34.64694 11.94709,-43.93296 6.99249,-10.22654 17.07133,-13.94247 27.21085,-10.03225 7.22422,2.78595 12.46978,10.16678 14.88277,20.94098 0.53322,2.38083 0.60974,3.42218 0.59922,8.15339 -0.0137,6.1577 -0.38876,8.52178 -2.22876,14.04919 -5.59872,16.81879 -20.7074,28.65032 -38.04197,29.79048 -2.8594,0.18808 -2.64291,-0.29161 -2.04565,4.53264 0.49593,4.00585 1.23981,7.89954 2.10662,11.02665 0.74098,2.6732 0.79961,3.46351 0.36463,4.91536 -0.89926,3.00145 -4.34796,4.7756 -7.40442,3.80912 z m 9.95538,-36.54116 c 7.57375,-1.42679 14.42456,-5.77397 19.12125,-12.13339 4.85137,-6.56887 7.25253,-14.99609 6.42124,-22.53633 -0.39089,-3.54553 -1.098,-6.04897 -2.5283,-8.9511 -1.4891,-3.02143 -3.12019,-4.90087 -5.09478,-5.87051 -1.32032,-0.64835 -1.82158,-0.74407 -3.89649,-0.74407 -2.07715,0 -2.57554,0.0954 -3.90254,0.74703 -6.73512,3.30729 -12.2833,15.9402 -14.71993,33.51651 -0.73174,5.27831 -1.48451,16.18504 -1.14079,16.52875 0.20694,0.20695 3.25576,-0.0888 5.74034,-0.55689 z" />
  </g>
</svg>
